<?xml version="1.0" encoding="UTF-8" standalone="no"?>
<svg
   id="Calque_1"
   version="1.1"
   viewBox="0 0 957.72001 320.85002"
   sodipodi:docname="logo_insee.svg"
   width="957.71997"
   height="320.85001"
   inkscape:version="1.4.2 (f4327f4, 2025-05-13)"
   xmlns:inkscape="http://www.inkscape.org/namespaces/inkscape"
   xmlns:sodipodi="http://sodipodi.sourceforge.net/DTD/sodipodi-0.dtd"
   xmlns="http://www.w3.org/2000/svg"
   xmlns:svg="http://www.w3.org/2000/svg">
  <sodipodi:namedview
     id="namedview2"
     pagecolor="#ffffff"
     bordercolor="#000000"
     borderopacity="0.25"
     inkscape:showpageshadow="2"
     inkscape:pageopacity="0.0"
     inkscape:pagecheckerboard="0"
     inkscape:deskcolor="#d1d1d1"
     inkscape:zoom="1.1604208"
     inkscape:cx="479.13653"
     inkscape:cy="165.02634"
     inkscape:window-width="1920"
     inkscape:window-height="1129"
     inkscape:window-x="-8"
     inkscape:window-y="-8"
     inkscape:window-maximized="1"
     inkscape:current-layer="Calque_1" />
  <!-- Generator: Adobe Illustrator 29.1.0, SVG Export Plug-In . SVG Version: 2.1.0 Build 142)  -->
  <defs
     id="defs1">
    <style
       id="style1">
      .st0 {
        fill: #7a57ff;
      }

      .st1 {
        fill: #c869ff;
      }

      .st2 {
        fill: #248bff;
      }
    </style>
  </defs>
  <path
     id="Baseline"
     d="m 774.49,276.91 c 5.23,0 8.57,3.78 8.76,8.38 H 764.4 c 1.26,-5.48 4.92,-8.38 10.09,-8.38 m 14.88,23.2 -3.97,-3.09 c -2.08,2.84 -5.48,4.73 -9.52,4.73 -7.12,0 -11.91,-5.11 -11.91,-12.11 v -0.13 h 24.33 c 0.19,-0.88 0.38,-2.14 0.38,-3.4 0,-7.94 -5.61,-13.8 -14.25,-13.8 -9.83,0 -16.01,7.5 -16.01,17.15 0,9.65 6.62,17.15 17.33,17.15 5.93,0 10.65,-2.52 13.62,-6.49 m -51.69,5.22 h 5.36 v -21.56 c 1.96,-3.21 4.67,-5.36 8.83,-5.36 1.26,0 2.21,0.19 3.15,0.44 v -5.55 c -0.76,-0.25 -1.7,-0.38 -2.71,-0.38 -4.03,0 -6.93,1.83 -9.27,4.6 v -3.97 h -5.36 v 31.77 z m -38.59,-15.88 c 0,-6.74 4.54,-12.1 11.28,-12.1 4.35,0 8.13,2.08 10.65,5.93 v 12.36 c -2.46,3.78 -6.24,5.93 -10.65,5.93 -6.74,0 -11.28,-5.36 -11.28,-12.11 m -5.67,-0.01 c 0,9.27 6.37,17.15 16.33,17.15 4.6,0 8.38,-1.7 11.28,-4.79 v 3.53 h 5.36 v -47.28 h -5.36 v 19.04 c -2.9,-3.09 -6.68,-4.79 -11.28,-4.79 -9.96,0 -16.33,7.88 -16.33,17.15 m -36.43,15.87 h 5.36 v -22 c 2.02,-3.34 4.92,-5.99 9.52,-5.99 4.92,0 8.07,3.28 8.07,8.95 v 19.04 h 5.42 v -19.23 c 0,-9.01 -5.29,-13.8 -12.42,-13.8 -4.73,0 -8.01,2.02 -10.59,4.85 v -3.59 h -5.36 z m -23.26,-28.43 c 5.23,0 8.57,3.78 8.76,8.38 h -18.85 c 1.26,-5.48 4.92,-8.38 10.09,-8.38 m 14.87,23.2 -3.97,-3.09 c -2.08,2.84 -5.49,4.73 -9.52,4.73 -7.12,0 -11.91,-5.11 -11.91,-12.11 v -0.13 h 24.33 c 0.19,-0.88 0.38,-2.14 0.38,-3.4 0,-7.94 -5.61,-13.8 -14.25,-13.8 -9.83,0 -16.01,7.5 -16.01,17.15 0,9.65 6.62,17.15 17.34,17.15 5.92,0 10.65,-2.52 13.62,-6.49 m -51.7,5.22 h 5.36 v -21.56 c 1.95,-3.21 4.66,-5.36 8.83,-5.36 1.26,0 2.21,0.19 3.15,0.44 v -5.55 c -0.76,-0.25 -1.7,-0.38 -2.71,-0.38 -4.04,0 -6.94,1.83 -9.27,4.6 v -3.97 h -5.36 v 31.77 z m -36.25,-9.83 v -12.1 c 2.46,-3.91 6.24,-6.05 10.65,-6.05 6.75,0 11.35,5.36 11.35,12.1 0,6.74 -4.6,12.11 -11.35,12.11 -4.41,0 -8.2,-2.15 -10.65,-6.05 m -5.35,25.33 h 5.36 v -19.04 c 2.9,3.09 6.68,4.79 11.28,4.79 9.96,0 16.33,-7.88 16.33,-17.15 0,-9.27 -6.37,-17.15 -16.33,-17.15 -4.6,0 -8.38,1.7 -11.28,4.79 v -3.53 h -5.36 v 47.28 z m -59.58,-15.51 h 5.36 v -22 c 1.83,-3.28 4.54,-5.99 8.89,-5.99 4.6,0 7.44,3.03 7.44,8.32 v 19.67 h 5.42 v -19.86 c 0,-0.69 -0.06,-1.39 -0.13,-2.08 2.14,-3.72 4.92,-6.05 8.95,-6.05 4.54,0 7.5,3.03 7.5,8.32 v 19.67 h 5.36 v -19.86 c 0,-8.64 -4.98,-13.17 -11.79,-13.17 -5.23,0 -8.7,2.77 -11.22,6.37 -1.96,-4.22 -5.8,-6.37 -10.46,-6.37 -4.41,0 -7.57,1.95 -9.96,4.73 v -3.47 h -5.36 z m -25.78,-3.78 c -6.81,0 -11.66,-5.49 -11.66,-12.11 0,-6.62 4.85,-12.1 11.66,-12.1 6.81,0 11.47,5.49 11.47,12.1 0,6.61 -4.86,12.11 -11.47,12.11 m -0.06,-29.25 c -10.28,0 -17.21,7.88 -17.21,17.15 0,9.27 6.93,17.15 17.21,17.15 10.28,0 17.21,-7.88 17.21,-17.15 0,-9.27 -7,-17.15 -17.21,-17.15 m -33.92,29.25 c -6.87,0 -11.72,-5.3 -11.72,-12.11 0,-6.81 4.86,-12.1 11.66,-12.1 3.91,0 7.12,1.89 9.08,4.73 l 4.29,-3.28 c -2.96,-3.91 -7.63,-6.49 -13.36,-6.49 -10.53,0 -17.27,7.88 -17.27,17.15 0,9.27 6.74,17.15 17.27,17.15 5.8,0 10.4,-2.52 13.36,-6.49 l -4.29,-3.28 c -1.95,2.84 -5.11,4.73 -9.01,4.73 m -56.68,3.77 h 5.36 v -21.56 c 1.95,-3.21 4.66,-5.36 8.83,-5.36 1.26,0 2.21,0.19 3.15,0.44 v -5.55 c -0.76,-0.25 -1.7,-0.38 -2.71,-0.38 -4.04,0 -6.93,1.83 -9.27,4.6 v -3.97 h -5.36 v 31.77 z m -16.01,-13.61 c 0,6.24 -3.34,9.83 -8.64,9.83 -5.3,0 -8.76,-3.59 -8.76,-9.83 v -18.16 h -5.36 v 17.97 c 0,9.52 5.49,15.07 14.06,15.07 8.57,0 14.12,-5.55 14.12,-15.07 v -17.97 h -5.42 z m -47.84,9.83 c -6.81,0 -11.66,-5.49 -11.66,-12.11 0,-6.62 4.85,-12.1 11.66,-12.1 6.81,0 11.47,5.49 11.47,12.1 0,6.61 -4.86,12.11 -11.47,12.11 m -0.07,-29.25 c -10.28,0 -17.21,7.88 -17.21,17.15 0,9.27 6.93,17.15 17.21,17.15 10.28,0 17.21,-7.88 17.21,-17.15 0,-9.27 -7,-17.15 -17.21,-17.15 m -51.06,23.2 v -12.1 c 2.46,-3.91 6.24,-6.05 10.65,-6.05 6.75,0 11.35,5.36 11.35,12.1 0,6.74 -4.6,12.11 -11.35,12.11 -4.41,0 -8.19,-2.15 -10.65,-6.05 m -5.36,25.33 h 5.36 v -19.04 c 2.9,3.09 6.68,4.79 11.29,4.79 9.96,0 16.33,-7.88 16.33,-17.15 0,-9.27 -6.37,-17.15 -16.33,-17.15 -4.6,0 -8.38,1.7 -11.29,4.79 v -3.53 h -5.36 v 47.28 z m -42.04,-15.51 h 5.36 v -21.56 c 1.95,-3.21 4.67,-5.36 8.83,-5.36 1.26,0 2.21,0.19 3.15,0.44 v -5.55 c -0.76,-0.25 -1.7,-0.38 -2.71,-0.38 -4.03,0 -6.94,1.83 -9.27,4.6 v -3.97 h -5.36 v 31.77 z m -23.26,-28.43 c 5.23,0 8.57,3.78 8.76,8.38 h -18.85 c 1.26,-5.48 4.92,-8.38 10.09,-8.38 m 14.87,23.2 -3.97,-3.09 c -2.08,2.84 -5.49,4.73 -9.52,4.73 -7.12,0 -11.91,-5.11 -11.91,-12.11 v -0.13 h 24.33 c 0.19,-0.88 0.38,-2.14 0.38,-3.4 0,-7.94 -5.61,-13.8 -14.25,-13.8 -9.83,0 -16.01,7.5 -16.01,17.15 0,9.65 6.62,17.15 17.34,17.15 5.92,0 10.65,-2.52 13.62,-6.49 m -51.7,5.22 h 5.36 v -21.56 c 1.95,-3.21 4.66,-5.36 8.83,-5.36 1.26,0 2.21,0.19 3.15,0.44 v -5.55 c -0.76,-0.25 -1.7,-0.38 -2.71,-0.38 -4.04,0 -6.94,1.83 -9.27,4.6 v -3.97 h -5.36 v 31.77 z m -16.01,-13.61 c 0,6.24 -3.34,9.83 -8.64,9.83 -5.3,0 -8.76,-3.59 -8.76,-9.83 v -18.16 h -5.36 v 17.97 c 0,9.52 5.48,15.07 14.06,15.07 8.58,0 14.12,-5.55 14.12,-15.07 v -17.97 h -5.42 z M 87.44,301 c 2.9,3.59 6.87,5.61 11.91,5.61 5.93,0 10.65,-3.72 10.72,-9.65 0,-11.09 -15.57,-8.57 -15.57,-15.82 0,-2.59 1.76,-4.35 5.04,-4.35 2.9,0 5.23,1.45 7,3.97 l 3.72,-3.22 c -2.21,-3.09 -6.11,-5.23 -10.78,-5.23 -5.99,0 -10.21,3.84 -10.21,8.95 0,11.41 15.57,8.76 15.57,15.95 0,2.77 -2.02,4.92 -5.55,4.92 -3.21,0 -5.86,-1.64 -8.07,-4.41 z M 67.83,276.91 c 5.23,0 8.57,3.78 8.76,8.38 H 57.74 c 1.26,-5.48 4.92,-8.38 10.09,-8.38 m 14.88,23.2 -3.97,-3.09 c -2.08,2.84 -5.48,4.73 -9.52,4.73 -7.12,0 -11.91,-5.11 -11.91,-12.11 v -0.13 h 24.33 c 0.19,-0.88 0.38,-2.14 0.38,-3.4 0,-7.94 -5.61,-13.8 -14.25,-13.8 -9.83,0 -16.01,7.5 -16.01,17.15 0,9.65 6.62,17.15 17.33,17.15 5.93,0 10.65,-2.52 13.62,-6.49 M 0,305.34 h 5.93 v -35.99 l 12.86,20.87 h 4.54 l 12.86,-20.87 v 35.99 h 5.93 v -44.13 h -7.63 l -13.43,22 -13.43,-22 H 0 Z" />
  <path
     id="Lettrage"
     d="m 685.19,137.14 c 3.23,-19.87 16.15,-31.05 36.77,-31.05 19.13,0 29.81,12.17 31.3,31.05 z m 43.23,89.44 c 23.1,0 42.73,-6.71 55.9,-16.4 v -34.53 c -12.67,10.68 -29.81,20.62 -51.43,20.62 -29.32,0 -43.97,-12.17 -47.7,-34.78 h 103.6 c 0.99,-4.22 1.74,-9.69 1.74,-16.65 0,-40.74 -26.09,-67.330002 -68.07,-67.330002 -45.96,0 -74.78,30.810002 -74.78,74.530002 0,49.19 33.04,74.53 80.74,74.53 z M 522.46,137.14 c 3.23,-19.87 16.15,-31.05 36.77,-31.05 19.13,0 29.81,12.17 31.3,31.05 z m 43.23,89.44 c 23.1,0 42.73,-6.71 55.9,-16.4 v -34.53 c -12.67,10.68 -29.81,20.62 -51.43,20.62 -29.32,0 -43.97,-12.17 -47.7,-34.78 h 103.6 c 0.99,-4.22 1.74,-9.69 1.74,-16.65 0,-40.74 -26.09,-67.330002 -68.07,-67.330002 -45.96,0 -74.78,30.810002 -74.78,74.530002 0,49.19 33.04,74.53 80.74,74.53 z m -168.69,0 c 39,0 66.33,-15.65 66.33,-48.69 0,-33.04 -29.56,-38.26 -62.61,-43.23 -25.09,-3.73 -37.27,-4.97 -37.27,-14.41 0,-9.44 11.43,-13.17 30.31,-13.17 20.87,0 44.22,7.2 63.6,18.88 V 92.669998 c -17.39,-9.44 -39.5,-15.15 -63.1,-15.15 -37.51,0 -65.59,14.41 -65.59,44.220002 0,34.04 32.05,41.49 62.36,45.71 22.61,3.23 36.27,3.97 36.27,15.4 0,10.19 -10.93,13.42 -30.81,13.42 -26.33,0 -50.43,-8.94 -68.57,-26.09 v 37.51 c 14.91,10.68 41.74,18.88 69.06,18.88 z m -230.54,-2.49 h 36.77 V 143.1 c 0.5,-22.61 11.43,-36.52 30.56,-36.52 20.87,0 27.58,13.42 27.58,33.04 v 84.47 h 36.77 v -89.93 c 0,-38.010002 -22.11,-56.640002 -52.67,-56.640002 -17.39,0 -32.55,6.46 -42.23,20.37 v -17.89 H 166.47 V 224.09 Z M 0,224.09 H 137.88 V 195.52 H 88.44 V 53.909998 h 49.44 v -28.57 H 0 v 28.57 H 49.44 V 195.52 H 0 Z" />
  <g
     id="Emblème"
     transform="translate(-161.42,-136.08)">
    <rect
       class="st1"
       x="1082.37"
       y="136.08"
       width="36.77"
       height="124.96"
       id="rect1" />
    <rect
       class="st0"
       x="1032.4399"
       y="184.03"
       width="36.77"
       height="77.010002"
       id="rect2" />
    <polygon
       class="st2"
       points="1019.27,261.05 1019.27,161.42 982.5,161.42 982.5,298.56 985.24,298.56 "
       id="polygon2" />
  </g>
</svg>
